<?xml version="1.0" encoding="iso-8859-1"?>
<!-- Generator: Adobe Illustrator 19.0.0, SVG Export Plug-In . SVG Version: 6.00 Build 0)  -->
<svg version="1.1" id="Capa_1" xmlns="http://www.w3.org/2000/svg" xmlns:xlink="http://www.w3.org/1999/xlink" x="0px" y="0px"
	 viewBox="0 0 448 448" style="enable-background:new 0 0 448 448;" xml:space="preserve">
<path style="fill:#756556;" d="M320.01,64h-288c-17.6,0-32,14.399-32,32v256c0,17.6,14.4,32,32,32h288c17.673,0,32-14.327,32-32V96
	C352.01,78.326,337.683,64,320.01,64z"/>
<path style="fill:#F4F5F5;" d="M320.01,160h-288v123.582c0,2.829,1.124,5.542,3.124,7.542l57.751,57.751
	c2,2,4.714,3.124,7.542,3.124H320.01V160z"/>
<path style="fill:#CDCCCC;" d="M90.801,295.301c3.24,3.741,5.208,8.694,5.208,14.032v41.675c1.378,0.63,2.874,0.991,4.418,0.991
	h47.078L90.801,295.301z"/>
<path style="fill:#E6E6E5;" d="M96.01,309.333c0-11.782-9.551-21.334-21.334-21.334H33.001c0.524,1.146,1.224,2.216,2.133,3.124
	l57.751,57.751c0.909,0.909,1.978,1.609,3.124,2.133L96.01,309.333L96.01,309.333z"/>
<path style="fill:#4F443A;" d="M283.44,123.222l54.006-54.005C332.424,65.942,326.452,64,320.01,64h-41.348v55.718L283.44,123.222z"
	/>
<path style="fill:#CDD7DE;" d="M272.01,128c-8.837,0-16-7.163-16-16V16c0-8.837,7.163-16,16-16s16,7.163,16,16v96
	C288.01,120.837,280.847,128,272.01,128z"/>
<polygon style="fill:#4F443A;" points="86.663,64 86.663,119.718 91.44,123.222 150.663,64 "/>
<path style="fill:#CDD7DE;" d="M80.01,128c-8.837,0-16-7.163-16-16V16c0-8.837,7.163-16,16-16s16,7.163,16,16v96
	C96.01,120.837,88.847,128,80.01,128z"/>
<g>
	<rect x="159.99" y="192" style="fill:#5885C4;" width="32" height="32"/>
	<rect x="223.99" y="192" style="fill:#5885C4;" width="32" height="32"/>
	<rect x="95.99" y="256" style="fill:#5885C4;" width="32" height="32"/>
	<rect x="159.99" y="256" style="fill:#5885C4;" width="32" height="32"/>
</g>
<circle style="fill:#CDD7DE;" cx="335.99" cy="336" r="112"/>
<path style="fill:#FFFFFF;" d="M335.994,416c-44.112,0-80-35.888-80-80s35.888-80,80-80s80,35.888,80,80S380.106,416,335.994,416z"
	/>
<g>
	<circle style="fill:#787878;" cx="335.99" cy="280" r="8"/>
	<circle style="fill:#787878;" cx="335.99" cy="392" r="8"/>
	<circle style="fill:#787878;" cx="279.99" cy="336" r="8"/>
	<circle style="fill:#787878;" cx="391.99" cy="336" r="8"/>
	<circle style="fill:#787878;" cx="296.39" cy="296.4" r="8"/>
	<circle style="fill:#787878;" cx="375.59" cy="375.6" r="8"/>
	<circle style="fill:#787878;" cx="296.39" cy="375.6" r="8"/>
</g>
<path style="fill:#D64230;" d="M323.45,323.088c-7.024,7.024-7.024,18.432,0,25.456c7.04,7.04,18.432,7.024,25.456,0
	c1.152-1.152,2.112-2.416,2.88-3.744l29.008-49.216c1.68-2.848-1.536-6.064-4.384-4.384l-49.2,29.024
	C325.866,320.992,324.602,321.936,323.45,323.088z"/>
<g>
	<path style="fill:#BEC9D1;" d="M96.01,112V96h-32v16c0,8.836,7.163,16,16,16S96.01,120.836,96.01,112z"/>
	<path style="fill:#BEC9D1;" d="M288.01,112V96h-32v16c0,8.836,7.163,16,16,16S288.01,120.836,288.01,112z"/>
</g>
<g>
</g>
<g>
</g>
<g>
</g>
<g>
</g>
<g>
</g>
<g>
</g>
<g>
</g>
<g>
</g>
<g>
</g>
<g>
</g>
<g>
</g>
<g>
</g>
<g>
</g>
<g>
</g>
<g>
</g>
</svg>
