<?xml version="1.0" encoding="utf-8"?>
<!-- Generator: Adobe Illustrator 23.0.1, SVG Export Plug-In . SVG Version: 6.00 Build 0)  -->
<svg version="1.1" id="Capa_1" xmlns="http://www.w3.org/2000/svg" xmlns:xlink="http://www.w3.org/1999/xlink" x="0px" y="0px"
	 viewBox="0 0 512 512" style="enable-background:new 0 0 512 512;" xml:space="preserve">
<style type="text/css">
	.st0{fill:#756556;}
	.st1{fill:#F4F5F5;}
	.st2{fill:#CDCCCC;}
	.st3{fill:#E6E6E5;}
	.st4{fill:#4F443A;}
	.st5{fill:#CDD7DE;}
	.st6{fill:#5885C4;}
	.st7{fill:#FFFFFF;}
	.st8{fill:#787878;}
	.st9{fill:#D64230;}
	.st10{fill:#BEC9D1;}
</style>
<path class="st0" d="M365.7,73.1H36.6C16.5,73.1,0,89.6,0,109.7v292.6c0,20.1,16.5,36.6,36.6,36.6h329.2c20.2,0,36.6-16.4,36.6-36.6
	V109.7C402.3,89.5,385.9,73.1,365.7,73.1z"/>
<path class="st1" d="M365.7,182.9H36.6v141.2c0,3.2,1.3,6.3,3.6,8.6l66,66c2.3,2.3,5.4,3.6,8.6,3.6h251V182.9z"/>
<path class="st2" d="M103.8,337.5c3.7,4.3,6,9.9,6,16v47.6c1.6,0.7,3.3,1.1,5,1.1h53.8L103.8,337.5z"/>
<path class="st3" d="M109.7,353.5c0-13.5-10.9-24.4-24.4-24.4H37.7c0.6,1.3,1.4,2.5,2.4,3.6l66,66c1,1,2.3,1.8,3.6,2.4L109.7,353.5
	L109.7,353.5z"/>
<path class="st4" d="M323.9,140.8l61.7-61.7c-5.7-3.7-12.6-6-19.9-6h-47.3v63.7L323.9,140.8z"/>
<path class="st5" d="M310.9,146.3c-10.1,0-18.3-8.2-18.3-18.3V18.3c0-10.1,8.2-18.3,18.3-18.3s18.3,8.2,18.3,18.3V128
	C329.2,138.1,321,146.3,310.9,146.3z"/>
<polygon class="st4" points="99,73.1 99,136.8 104.5,140.8 172.2,73.1 "/>
<path class="st5" d="M91.4,146.3c-10.1,0-18.3-8.2-18.3-18.3V18.3C73.2,8.2,81.3,0,91.4,0s18.3,8.2,18.3,18.3V128
	C109.7,138.1,101.5,146.3,91.4,146.3z"/>
<g>
	<rect x="182.8" y="219.4" class="st6" width="36.6" height="36.6"/>
	<rect x="256" y="219.4" class="st6" width="36.6" height="36.6"/>
	<rect x="109.7" y="292.6" class="st6" width="36.6" height="36.6"/>
	<rect x="182.8" y="292.6" class="st6" width="36.6" height="36.6"/>
</g>
<circle class="st5" cx="384" cy="384" r="128"/>
<path class="st7" d="M384,475.4c-50.4,0-91.4-41-91.4-91.4s41-91.4,91.4-91.4s91.4,41,91.4,91.4S434.4,475.4,384,475.4z"/>
<g>
	<circle class="st8" cx="384" cy="320" r="9.1"/>
	<circle class="st8" cx="384" cy="448" r="9.1"/>
	<circle class="st8" cx="320" cy="384" r="9.1"/>
	<circle class="st8" cx="448" cy="384" r="9.1"/>
	<circle class="st8" cx="338.7" cy="338.8" r="9.1"/>
	<circle class="st8" cx="429.3" cy="429.3" r="9.1"/>
	<circle class="st8" cx="338.7" cy="429.3" r="9.1"/>
</g>
<path class="st9" d="M369.7,369.3c-8,8-8,21.1,0,29.1c8,8,21.1,8,29.1,0c1.3-1.3,2.4-2.8,3.3-4.3l33.2-56.2c1.9-3.3-1.8-6.9-5-5
	L374,366C372.4,366.9,371,367.9,369.7,369.3z"/>
<g>
	<path class="st10" d="M109.7,128v-18.3H73.2V128c0,10.1,8.2,18.3,18.3,18.3S109.7,138.1,109.7,128z"/>
	<path class="st10" d="M329.2,128v-18.3h-36.6V128c0,10.1,8.2,18.3,18.3,18.3S329.2,138.1,329.2,128z"/>
</g>
</svg>
