<svg id="Layer_1" enable-background="new 0 0 512 512" height="512" viewBox="0 0 512 512" width="512" xmlns="http://www.w3.org/2000/svg"><g><g><path d="m466 512h-360c-8.284 0-15-6.716-15-15v-482c0-8.284 6.716-15 15-15h360c8.284 0 15 6.716 15 15v482c0 8.284-6.716 15-15 15z" fill="#fff4f4"/></g><path d="m466 0h-180v512h180c8.284 0 15-6.716 15-15v-482c0-8.284-6.716-15-15-15z" fill="#f6efea"/><g><path d="m341 258h-156c-8.284 0-15-6.716-15-15s6.716-15 15-15h156c8.284 0 15 6.716 15 15s-6.716 15-15 15z" fill="#00429d"/></g><g><circle clip-rule="evenodd" cx="406.001" cy="244.185" fill="#00347b" fill-rule="evenodd" r="15"/></g><g><path d="m341 318h-156c-8.284 0-15-6.716-15-15s6.716-15 15-15h156c8.284 0 15 6.716 15 15s-6.716 15-15 15z" fill="#00429d"/></g><g><circle clip-rule="evenodd" cx="406.001" cy="304.185" fill="#00347b" fill-rule="evenodd" r="15"/></g><g><g><path d="m286 103.45c-8.284 0-15-6.716-15-15v-13.117c0-8.284 6.716-15 15-15s15 6.716 15 15v13.117c0 8.284-6.716 15-15 15z" fill="#7c84e8"/></g></g><path d="m286 60.333v43.116c8.284 0 15-6.716 15-15v-13.116c0-8.284-6.716-15-15-15z" fill="#424ede"/><path d="m286 81.647c-48.975 0-88.819 38.354-88.819 85.498v11.473c0 8.284 6.716 15 15 15h147.638c8.284 0 15-6.716 15-15v-11.473c0-47.144-39.844-85.498-88.819-85.498z" fill="#b6baf2"/><path d="m286 81.647v111.971h73.819c8.284 0 15-6.716 15-15v-11.473c0-47.144-39.844-85.498-88.819-85.498z" fill="#7c84e8"/><g><g><path d="m385 199h-198c-8.284 0-15-6.716-15-15s6.716-15 15-15h198c8.284 0 15 6.716 15 15s-6.716 15-15 15z" fill="#7c84e8"/></g></g><g><path d="m341 378h-156c-8.284 0-15-6.716-15-15s6.716-15 15-15h156c8.284 0 15 6.716 15 15s-6.716 15-15 15z" fill="#00429d"/></g><g><circle clip-rule="evenodd" cx="406.001" cy="364.185" fill="#00347b" fill-rule="evenodd" r="15"/></g><g><path d="m342 438h-156c-8.284 0-15-6.716-15-15s6.716-15 15-15h156c8.284 0 15 6.716 15 15s-6.716 15-15 15z" fill="#00429d"/></g><g><circle clip-rule="evenodd" cx="407.001" cy="424.185" fill="#00347b" fill-rule="evenodd" r="15"/></g><path d="m91 158h-15c-8.271 0-15-6.729-15-15s6.729-15 15-15h50c8.284 0 15-6.716 15-15s-6.716-15-15-15h-50c-24.813 0-45 20.187-45 45s20.187 45 45 45h15z" fill="#ffde46"/><path d="m91 277h-15c-8.271 0-15-6.729-15-15s6.729-15 15-15h50c8.284 0 15-6.716 15-15s-6.716-15-15-15h-50c-24.813 0-45 20.187-45 45s20.187 45 45 45h15z" fill="#ffde46"/><path d="m91 396h-15c-8.271 0-15-6.729-15-15s6.729-15 15-15h50c8.284 0 15-6.716 15-15s-6.716-15-15-15h-50c-24.813 0-45 20.187-45 45s20.187 45 45 45h15z" fill="#ffde46"/><path d="m385 169h-99v30h99c8.284 0 15-6.716 15-15s-6.716-15-15-15z" fill="#424ede"/><g fill="#00347b"><path d="m341 228h-55v30h55c8.284 0 15-6.716 15-15s-6.716-15-15-15z"/><path d="m341 288h-55v30h55c8.284 0 15-6.716 15-15s-6.716-15-15-15z"/><path d="m341 348h-55v30h55c8.284 0 15-6.716 15-15s-6.716-15-15-15z"/><path d="m342 408h-56v30h56c8.284 0 15-6.716 15-15s-6.716-15-15-15z"/></g></g></svg>