<?xml version="1.0" encoding="utf-8"?>
<!-- Generator: Adobe Illustrator 23.0.1, SVG Export Plug-In . SVG Version: 6.00 Build 0)  -->
<svg version="1.1" id="Capa_1" xmlns="http://www.w3.org/2000/svg" xmlns:xlink="http://www.w3.org/1999/xlink" x="0px" y="0px"
	 viewBox="0 0 512 512" style="enable-background:new 0 0 512 512;" xml:space="preserve">
<style type="text/css">
	.st0{fill:#424A60;}
	.st1{fill:#43B05C;}
	.st2{fill:#7383BF;}
	.st3{fill:#57D8AB;}
	.st4{fill:#D75A4A;}
	.st5{fill:#EBBA16;}
	.st6{fill:#4B6DAA;}
</style>
<rect x="260.8" y="270.5" class="st0" width="19.3" height="173.9"/>
<rect x="269.5" y="120.7" transform="matrix(0.7071 -0.7071 0.7071 0.7071 16.7224 301.187)" class="st0" width="204.9" height="19.3"/>
<rect x="18" y="338.1" transform="matrix(0.7071 -0.7071 0.7071 0.7071 -200.6387 211.1548)" class="st0" width="273.2" height="19.3"/>
<rect x="169.1" y="64.9" transform="matrix(0.7071 -0.7071 0.7071 0.7071 -46.702 167.3986)" class="st0" width="19.3" height="150.3"/>
<rect x="352.6" y="221.2" transform="matrix(0.7071 -0.7071 0.7071 0.7071 -122.7262 350.9415)" class="st0" width="19.3" height="204.9"/>
<circle class="st1" cx="463.7" cy="48.3" r="48.3"/>
<circle class="st2" cx="270.5" cy="463.7" r="48.3"/>
<circle class="st3" cx="48.3" cy="444.4" r="48.3"/>
<circle class="st4" cx="115.9" cy="77.3" r="29"/>
<circle class="st5" cx="425.1" cy="386.4" r="29"/>
<circle class="st6" cx="270.5" cy="231.8" r="67.6"/>
</svg>
